<svg xmlns="http://www.w3.org/2000/svg" xmlns:xlink="http://www.w3.org/1999/xlink" width="352.373mm" height="211.097mm" viewBox="0 0 998.852 598.384">
  <defs>
    <style>
      .cls-1 {
        isolation: isolate;
      }

      .cls-2 {
        fill: url(#Áåçûìÿííûé_ãðàäèåíò_20);
      }

      .cls-28, .cls-29, .cls-3, .cls-32, .cls-4, .cls-41, .cls-42, .cls-5, .cls-52, .cls-7, .cls-9 {
        mix-blend-mode: multiply;
      }

      .cls-3 {
        fill: url(#Áåçûìÿííûé_ãðàäèåíò_20-2);
      }

      .cls-4 {
        fill: url(#Áåçûìÿííûé_ãðàäèåíò_20-3);
      }

      .cls-5 {
        fill: url(#Áåçûìÿííûé_ãðàäèåíò_20-4);
      }

      .cls-6 {
        fill: #d9dbdf;
      }

      .cls-7 {
        fill: url(#Áåçûìÿííûé_ãðàäèåíò_20-5);
      }

      .cls-8 {
        fill: #c4c8cd;
      }

      .cls-9 {
        fill: url(#Áåçûìÿííûé_ãðàäèåíò_20-6);
      }

      .cls-10 {
        fill: url(#Áåçûìÿííûé_ãðàäèåíò_20-7);
      }

      .cls-11 {
        fill: url(#Áåçûìÿííûé_ãðàäèåíò_20-8);
      }

      .cls-12 {
        fill: url(#Áåçûìÿííûé_ãðàäèåíò_20-9);
      }

      .cls-13 {
        fill: #697182;
      }

      .cls-14 {
        fill: #3c4456;
      }

      .cls-15 {
        fill: #0078ef;
      }

      .cls-16 {
        fill: url(#Áåçûìÿííûé_ãðàäèåíò_20-10);
      }

      .cls-17 {
        fill: url(#Áåçûìÿííûé_ãðàäèåíò_20-11);
      }

      .cls-18 {
        fill: url(#Áåçûìÿííûé_ãðàäèåíò_20-12);
      }

      .cls-19 {
        fill: url(#Áåçûìÿííûé_ãðàäèåíò_20-13);
      }

      .cls-20 {
        fill: url(#Áåçûìÿííûé_ãðàäèåíò_14);
      }

      .cls-21 {
        fill: url(#Áåçûìÿííûé_ãðàäèåíò_14-2);
      }

      .cls-22 {
        fill: url(#Áåçûìÿííûé_ãðàäèåíò_14-3);
      }

      .cls-23 {
        fill: url(#Áåçûìÿííûé_ãðàäèåíò_16);
      }

      .cls-24 {
        fill: url(#Áåçûìÿííûé_ãðàäèåíò_29);
      }

      .cls-25 {
        fill: url(#Áåçûìÿííûé_ãðàäèåíò_68);
      }

      .cls-26 {
        fill: url(#Áåçûìÿííûé_ãðàäèåíò_14-4);
      }

      .cls-27 {
        fill: url(#Áåçûìÿííûé_ãðàäèåíò_14-5);
      }

      .cls-28 {
        fill: url(#Áåçûìÿííûé_ãðàäèåíò_30);
      }

      .cls-29 {
        fill: url(#Áåçûìÿííûé_ãðàäèåíò_30-2);
      }

      .cls-30 {
        fill: #414a5c;
      }

      .cls-31 {
        fill: #202735;
      }

      .cls-33 {
        fill: url(#Áåçûìÿííûé_ãðàäèåíò_11);
      }

      .cls-34 {
        fill: url(#Áåçûìÿííûé_ãðàäèåíò_20-14);
      }

      .cls-35 {
        fill: url(#Áåçûìÿííûé_ãðàäèåíò_11-2);
      }

      .cls-36 {
        fill: url(#Áåçûìÿííûé_ãðàäèåíò_20-15);
      }

      .cls-37 {
        fill: #f17e59;
      }

      .cls-38 {
        fill: url(#Áåçûìÿííûé_ãðàäèåíò_14-6);
      }

      .cls-39 {
        fill: url(#Áåçûìÿííûé_ãðàäèåíò_14-7);
      }

      .cls-40 {
        fill: #0078ee;
      }

      .cls-41 {
        fill: url(#Áåçûìÿííûé_ãðàäèåíò_54);
      }

      .cls-42 {
        fill: url(#Áåçûìÿííûé_ãðàäèåíò_34);
      }

      .cls-43 {
        fill: url(#Áåçûìÿííûé_ãðàäèåíò_34-2);
      }

      .cls-44 {
        fill: #fff;
      }

      .cls-45 {
        fill: url(#Áåçûìÿííûé_ãðàäèåíò_68-2);
      }

      .cls-46 {
        opacity: 0.5;
        mix-blend-mode: screen;
        fill: url(#Áåçûìÿííûé_ãðàäèåíò_17);
      }

      .cls-47 {
        fill: url(#Áåçûìÿííûé_ãðàäèåíò_68-3);
      }

      .cls-48 {
        fill: url(#Áåçûìÿííûé_ãðàäèåíò_25);
      }

      .cls-49 {
        fill: url(#Áåçûìÿííûé_ãðàäèåíò_14-8);
      }

      .cls-50 {
        fill: url(#Áåçûìÿííûé_ãðàäèåíò_25-2);
      }

      .cls-51 {
        fill: url(#Áåçûìÿííûé_ãðàäèåíò_14-9);
      }

      .cls-52 {
        fill: url(#Áåçûìÿííûé_ãðàäèåíò_54-2);
      }

      .cls-53 {
        fill: #49a3fe;
      }
    </style>
    <linearGradient id="Áåçûìÿííûé_ãðàäèåíò_20" data-name="Áåçûìÿííûé ãðàäèåíò 20" x1="956.673" y1="11.309" x2="956.673" y2="278.78" gradientTransform="matrix(-1, 0, 0, 1, 1339.104, -0.105)" gradientUnits="userSpaceOnUse">
      <stop offset="0" stop-color="#fff"/>
      <stop offset="1" stop-color="#d8dcdf"/>
    </linearGradient>
    <linearGradient id="Áåçûìÿííûé_ãðàäèåíò_20-2" x1="935.76" y1="21.493" x2="935.76" y2="272.449" xlink:href="#Áåçûìÿííûé_ãðàäèåíò_20"/>
    <linearGradient id="Áåçûìÿííûé_ãðàäèåíò_20-3" x1="978.065" y1="21.493" x2="978.065" y2="272.448" xlink:href="#Áåçûìÿííûé_ãðàäèåíò_20"/>
    <linearGradient id="Áåçûìÿííûé_ãðàäèåíò_20-4" x1="956.849" y1="21.514" x2="956.849" y2="272.975" xlink:href="#Áåçûìÿííûé_ãðàäèåíò_20"/>
    <linearGradient id="Áåçûìÿííûé_ãðàäèåíò_20-5" x1="451.277" y1="641.352" x2="354.491" y2="548.309" gradientTransform="matrix(-0.999, 0.021, -0.021, 0.589, 556.223, 152.976)" xlink:href="#Áåçûìÿííûé_ãðàäèåíò_20"/>
    <linearGradient id="Áåçûìÿííûé_ãðàäèåíò_20-6" x1="615.508" y1="470.067" x2="609.608" y2="443.514" gradientTransform="translate(-373.994)" xlink:href="#Áåçûìÿííûé_ãðàäèåíò_20"/>
    <linearGradient id="Áåçûìÿííûé_ãðàäèåíò_20-7" x1="641.483" y1="431.698" x2="594.424" y2="431.698" gradientTransform="translate(-373.994)" xlink:href="#Áåçûìÿííûé_ãðàäèåíò_20"/>
    <linearGradient id="Áåçûìÿííûé_ãðàäèåíò_20-8" x1="641.483" y1="441.479" x2="594.425" y2="441.479" gradientTransform="translate(-384.202 -0.105)" xlink:href="#Áåçûìÿííûé_ãðàäèåíò_20"/>
    <linearGradient id="Áåçûìÿííûé_ãðàäèåíò_20-9" x1="544.753" y1="421.45" x2="581.698" y2="421.45" gradientTransform="translate(-384.202 -0.105)" xlink:href="#Áåçûìÿííûé_ãðàäèåíò_20"/>
    <linearGradient id="Áåçûìÿííûé_ãðàäèåíò_20-10" x1="-547.011" y1="173.649" x2="-562.657" y2="31.475" gradientTransform="matrix(-1, 0, 0, 1, 134.855, -0.105)" xlink:href="#Áåçûìÿííûé_ãðàäèåíò_20"/>
    <linearGradient id="Áåçûìÿííûé_ãðàäèåíò_20-11" x1="-460.203" y1="174.474" x2="-475.639" y2="34.207" gradientTransform="matrix(-1, 0, 0, 1, 134.855, -0.105)" xlink:href="#Áåçûìÿííûé_ãðàäèåíò_20"/>
    <linearGradient id="Áåçûìÿííûé_ãðàäèåíò_20-12" x1="-738.438" y1="166.996" x2="-754.084" y2="24.824" gradientTransform="matrix(-1, 0, 0, 1, 134.855, -0.105)" xlink:href="#Áåçûìÿííûé_ãðàäèåíò_20"/>
    <linearGradient id="Áåçûìÿííûé_ãðàäèåíò_20-13" x1="-651.63" y1="167.822" x2="-667.066" y2="27.555" gradientTransform="matrix(-1, 0, 0, 1, 134.855, -0.105)" xlink:href="#Áåçûìÿííûé_ãðàäèåíò_20"/>
    <linearGradient id="Áåçûìÿííûé_ãðàäèåíò_14" data-name="Áåçûìÿííûé ãðàäèåíò 14" x1="772.092" y1="492.149" x2="772.092" y2="315.71" gradientTransform="matrix(-1, 0, 0, 1, 1085.341, -0.105)" gradientUnits="userSpaceOnUse">
      <stop offset="0" stop-color="#fff"/>
      <stop offset="1" stop-color="#c4c8cd"/>
    </linearGradient>
    <linearGradient id="Áåçûìÿííûé_ãðàäèåíò_14-2" x1="253.588" y1="543.187" x2="253.588" y2="467.32" xlink:href="#Áåçûìÿííûé_ãðàäèåíò_14"/>
    <linearGradient id="Áåçûìÿííûé_ãðàäèåíò_14-3" x1="170.09" y1="521.608" x2="214.62" y2="458.716" xlink:href="#Áåçûìÿííûé_ãðàäèåíò_14"/>
    <linearGradient id="Áåçûìÿííûé_ãðàäèåíò_16" data-name="Áåçûìÿííûé ãðàäèåíò 16" x1="651.311" y1="482.68" x2="692.296" y2="261.362" xlink:href="#Áåçûìÿííûé_ãðàäèåíò_14"/>
    <linearGradient id="Áåçûìÿííûé_ãðàäèåíò_29" data-name="Áåçûìÿííûé ãðàäèåíò 29" x1="628.706" y1="549.047" x2="616.009" y2="485.051" gradientUnits="userSpaceOnUse">
      <stop offset="0" stop-color="#fff"/>
      <stop offset="0.949" stop-color="#0078ee"/>
    </linearGradient>
    <linearGradient id="Áåçûìÿííûé_ãðàäèåíò_68" data-name="Áåçûìÿííûé ãðàäèåíò 68" x1="181.676" y1="367.261" x2="540.757" y2="324.273" gradientTransform="matrix(-1, 0, 0, 1, 1085.341, -0.105)" gradientUnits="userSpaceOnUse">
      <stop offset="0" stop-color="#fff"/>
      <stop offset="0.952" stop-color="#d8dcdf"/>
    </linearGradient>
    <linearGradient id="Áåçûìÿííûé_ãðàäèåíò_14-4" x1="447.805" y1="353.924" x2="714.634" y2="435.133" gradientTransform="matrix(1, 0, 0, 1, 0, 0)" xlink:href="#Áåçûìÿííûé_ãðàäèåíò_14"/>
    <linearGradient id="Áåçûìÿííûé_ãðàäèåíò_14-5" x1="999.438" y1="415.616" x2="1152.92" y2="364.615" gradientTransform="translate(-90.556 -0.105)" xlink:href="#Áåçûìÿííûé_ãðàäèåíò_14"/>
    <linearGradient id="Áåçûìÿííûé_ãðàäèåíò_30" data-name="Áåçûìÿííûé ãðàäèåíò 30" x1="712.217" y1="403.318" x2="726.671" y2="355.825" gradientUnits="userSpaceOnUse">
      <stop offset="0" stop-color="#fff"/>
      <stop offset="0.307" stop-color="#f9f9fa"/>
      <stop offset="0.731" stop-color="#e7e9eb"/>
      <stop offset="1" stop-color="#d8dcdf"/>
    </linearGradient>
    <linearGradient id="Áåçûìÿííûé_ãðàäèåíò_30-2" x1="478.145" y1="337.801" x2="491.69" y2="293.294" xlink:href="#Áåçûìÿííûé_ãðàäèåíò_30"/>
    <linearGradient id="Áåçûìÿííûé_ãðàäèåíò_11" data-name="Áåçûìÿííûé ãðàäèåíò 11" x1="547.744" y1="267.942" x2="550.518" y2="257.379" gradientTransform="matrix(1, 0, 0.018, 1, -2.208, 0)" gradientUnits="userSpaceOnUse">
      <stop offset="0" stop-color="#fff"/>
      <stop offset="1" stop-color="#46495f"/>
    </linearGradient>
    <linearGradient id="Áåçûìÿííûé_ãðàäèåíò_20-14" x1="392.932" y1="247.27" x2="388.496" y2="148.568" gradientTransform="matrix(-1.014, -0.276, -0.321, 0.899, 1020.675, 97.07)" xlink:href="#Áåçûìÿííûé_ãðàäèåíò_20"/>
    <linearGradient id="Áåçûìÿííûé_ãðàäèåíò_11-2" x1="767.967" y1="328.242" x2="771.395" y2="315.191" gradientTransform="matrix(1, 0, 0, 1, 0, 0)" xlink:href="#Áåçûìÿííûé_ãðàäèåíò_11"/>
    <linearGradient id="Áåçûìÿííûé_ãðàäèåíò_20-15" x1="180.76" y1="234.413" x2="175.278" y2="112.451" gradientTransform="matrix(-1.009, -0.276, -0.337, 0.899, 1021.384, 97.07)" xlink:href="#Áåçûìÿííûé_ãðàäèåíò_20"/>
    <linearGradient id="Áåçûìÿííûé_ãðàäèåíò_14-6" x1="478.99" y1="508.405" x2="795.37" y2="508.405" gradientTransform="matrix(-1, 0, 0, 1, 1095.549, 0)" xlink:href="#Áåçûìÿííûé_ãðàäèåíò_14"/>
    <linearGradient id="Áåçûìÿííûé_ãðàäèåíò_14-7" x1="637.538" y1="547.042" x2="637.538" y2="489.595" gradientTransform="matrix(-1, 0, 0, 1, 1095.549, 0)" xlink:href="#Áåçûìÿííûé_ãðàäèåíò_14"/>
    <linearGradient id="Áåçûìÿííûé_ãðàäèåíò_54" data-name="Áåçûìÿííûé ãðàäèåíò 54" x1="577.892" y1="500.18" x2="615.212" y2="405.119" gradientTransform="matrix(-1, 0, 0, 1, 1095.549, 0)" gradientUnits="userSpaceOnUse">
      <stop offset="0" stop-color="#fff"/>
      <stop offset="1" stop-color="#0057a8"/>
    </linearGradient>
    <linearGradient id="Áåçûìÿííûé_ãðàäèåíò_34" data-name="Áåçûìÿííûé ãðàäèåíò 34" x1="445.157" y1="181.648" x2="416.085" y2="197.7" gradientUnits="userSpaceOnUse">
      <stop offset="0" stop-color="#fff"/>
      <stop offset="1" stop-color="#ba654b"/>
    </linearGradient>
    <linearGradient id="Áåçûìÿííûé_ãðàäèåíò_34-2" x1="525.635" y1="399.414" x2="525.635" y2="380.869" gradientTransform="translate(270.511 -464.769) rotate(36.37)" xlink:href="#Áåçûìÿííûé_ãðàäèåíò_34"/>
    <linearGradient id="Áåçûìÿííûé_ãðàäèåíò_68-2" x1="466.538" y1="220.168" x2="421.54" y2="340.399" gradientTransform="matrix(1, 0, 0, 1, 0, 0)" xlink:href="#Áåçûìÿííûé_ãðàäèåíò_68"/>
    <linearGradient id="Áåçûìÿííûé_ãðàäèåíò_17" data-name="Áåçûìÿííûé ãðàäèåíò 17" x1="659.685" y1="121.644" x2="702.318" y2="259.982" gradientTransform="matrix(-1, 0, 0, 1, 1095.549, 0)" gradientUnits="userSpaceOnUse">
      <stop offset="0" stop-color="#fff"/>
      <stop offset="1"/>
    </linearGradient>
    <linearGradient id="Áåçûìÿííûé_ãðàäèåíò_68-3" x1="556.49" y1="253.835" x2="511.492" y2="374.065" gradientTransform="matrix(1, 0, 0, 1, 0, 0)" xlink:href="#Áåçûìÿííûé_ãðàäèåíò_68"/>
    <linearGradient id="Áåçûìÿííûé_ãðàäèåíò_25" data-name="Áåçûìÿííûé ãðàäèåíò 25" x1="727.041" y1="466.07" x2="700.364" y2="361.14" gradientTransform="matrix(-1, 0, 0, 1, 1095.549, 0)" gradientUnits="userSpaceOnUse">
      <stop offset="0" stop-color="#fff"/>
      <stop offset="1" stop-color="#697182"/>
    </linearGradient>
    <linearGradient id="Áåçûìÿííûé_ãðàäèåíò_14-8" x1="731.192" y1="464.446" x2="705.806" y2="364.593" gradientTransform="matrix(-1, 0, 0, 1, 1095.549, 0)" xlink:href="#Áåçûìÿííûé_ãðàäèåíò_14"/>
    <linearGradient id="Áåçûìÿííûé_ãðàäèåíò_25-2" x1="729.009" y1="525.721" x2="729.009" y2="408.211" xlink:href="#Áåçûìÿííûé_ãðàäèåíò_25"/>
    <linearGradient id="Áåçûìÿííûé_ãðàäèåíò_14-9" x1="731.201" y1="529.853" x2="731.201" y2="412.343" gradientTransform="matrix(-1, 0, 0, 1, 1095.549, 0)" xlink:href="#Áåçûìÿííûé_ãðàäèåíò_14"/>
    <linearGradient id="Áåçûìÿííûé_ãðàäèåíò_54-2" x1="859.618" y1="420.442" x2="830.333" y2="420.442" gradientTransform="matrix(1, 0, 0, 1, 0, 0)" xlink:href="#Áåçûìÿííûé_ãðàäèåíò_54"/>
  </defs>
  <title>CUSTOM WEB APPLICATION DEVELOPMENT</title>
  <g class="cls-1">
    <g id="Layer_1" data-name="Layer 1">
      <g>
        <g>
          <polygon class="cls-2" points="335.462 343.379 429.401 335.063 429.401 12.262 335.462 0 335.462 343.379"/>
          <polygon class="cls-3" points="386.915 168.161 419.774 168.366 419.774 326.25 386.915 329.228 386.915 168.161"/>
          <polygon class="cls-4" points="377.342 168.101 377.342 330.096 344.737 333.052 344.737 167.899 377.342 168.101"/>
          <polygon class="cls-5" points="344.737 157.662 344.737 10.875 419.774 20.831 419.774 157.958 344.737 157.662"/>
          <polygon class="cls-6" points="344.737 38.877 344.737 10.875 419.774 20.831 344.737 38.877"/>
          <polygon class="cls-6" points="335.462 343.345 293.528 335.798 293.528 22.124 335.462 0 335.462 343.345"/>
        </g>
        <polygon class="cls-7" points="248.347 493.119 111.253 559.763 0 549.829 197.662 481.086 248.347 493.119"/>
        <g>
          <ellipse class="cls-8" cx="224.042" cy="482.527" rx="31.7" ry="16.329"/>
          <path class="cls-8" d="M273.737,432.359H194.763L202.59,483h0c0,2.2,14.173,3.979,31.66,3.979s31.659-1.781,31.659-3.979h0Z" transform="translate(-10.208 -0.105)"/>
          <path class="cls-9" d="M207.71,460.777c5.816-6.932,12.938-.334,20.527-1.8,8.016-1.548,16.16-2.733,23.268,2.67-1.269-.964,9.534,12.959,18.01-1.979l4.221-27.309H194.763l6.141,37.674C203.43,466.254,206.723,461.954,207.71,460.777Z" transform="translate(-10.208 -0.105)"/>
          <path class="cls-10" d="M279.829,421.452l-7.417,20.492c0-4.581-17.092-8.3-38.164-8.3s-38.15,3.716-38.15,8.3l-7.419-20.492Z" transform="translate(-10.208 -0.105)"/>
          <ellipse class="cls-11" cx="224.042" cy="441.373" rx="38.329" ry="13.637"/>
          <ellipse class="cls-12" cx="224.042" cy="421.345" rx="45.575" ry="15.304"/>
          <ellipse class="cls-13" cx="224.042" cy="421.345" rx="41.407" ry="11.755"/>
          <g>
            <path class="cls-14" d="M250.993,347.348c-3.686,7.084-12,71.759-12,71.759l3.127,1.538c3.385-44.869,5.536-56.617,9.45-72.828C251.627,347.567,254.678,340.264,250.993,347.348Z" transform="translate(-10.208 -0.105)"/>
            <path class="cls-15" d="M256.891,240.746c-22.293,55.551-5.886,107.319-5.886,107.319,25.177-10.051,27.435-40.358,27.435-40.358-27.813,15.691,1.366-10.033,1.366-10.033C291.488,255.86,256.891,240.746,256.891,240.746Z" transform="translate(-10.208 -0.105)"/>
            <path class="cls-14" d="M239.762,303.909s26.685,25.981.07,8.334c0,0-2.905,27.348,11.172,35.821,0,0,23.284-51.021,5.037-108.028C256.042,240.037,231.112,261.364,239.762,303.909Z" transform="translate(-10.208 -0.105)"/>
          </g>
          <path class="cls-14" d="M276.5,333.437s-4.3,5.446,3.752,11.969-8.277,3.845-9.258-7.821-15.876,3.919-7.58,20.3c7.675,15.149-16.966,32.611-27.019,64.447a35.644,35.644,0,0,1,4.23-1.292c5.513-14.505,16.436-40,31.334-59.1,22.022-28.246,61.7-27.628,61.7-27.628S299.338,319.708,276.5,333.437Z" transform="translate(-10.208 -0.105)"/>
          <path class="cls-14" d="M236.748,403.01c.71,3.208,3.718,11.634,5.9,17.564.618-.114,1.246-.185,1.872-.267-1.819-5.017-4.22-9.609-5.33-13.566-9.155-32.664,5.1-45.084,9.316-69.454C192.892,394.271,235.605,397.847,236.748,403.01Z" transform="translate(-10.208 -0.105)"/>
          <g>
            <path class="cls-15" d="M285.8,352.583c-2.13,7.1,2.632,14.913-2.424,15.657s4.189-14.485-2.191-13.482-11.261,9.11-11.261,9.11c.318,26.761-2.98,3.148-2.98,3.148-10.37,19.294-2.5,29.02-2.5,29.02-11.243,6.258-19.627,17.041-24.791,25.231.838-.231,1.686-.437,2.545-.607,5.69-9.413,15.858-21.765,32.494-28.616,29.326-12.079,41.117-39.14,41.117-39.14S287.931,345.486,285.8,352.583Z" transform="translate(-10.208 -0.105)"/>
            <path class="cls-14" d="M284.727,370.52c-20,4.541-20.282,25.516-20.282,25.516-11.806,6.951-20,17.375-24.965,25.274q1.341-.378,2.718-.649c5.69-9.413,15.858-21.765,32.494-28.616,29.326-12.079,41.117-39.14,41.117-39.14A61.3,61.3,0,0,1,284.727,370.52Z" transform="translate(-10.208 -0.105)"/>
          </g>
          <g>
            <path class="cls-15" d="M224.814,366.84c1.448,15.949,12.755,43.63,17.136,53.88a35.8,35.8,0,0,1,4.4-.613c-4.446-7.275-17.207-29.628-20.453-51.6-3.951-26.739,13.63-38.986-10.328-71.585,0,0-22.2,37.76-5.012-6.249,0,0-10.192-8.037-13.837-13.016a19.948,19.948,0,0,1-4.683,11.718s2.684-21.21-23.9-17.594c0,0-12.707,19.269,10.518,34.908,0,0,12.24,6.918,16.484,11.709,0,0-11.333-6.18-19.329-2.369,0,0,3.375,17.029,11.13,18.613s8.555,2.435,8.555,2.435,1.028,4.03,6.177,3.511,5.294,3.435,5.294,3.435-8.713-3.749-15.441-1.3c0,0-.276,10.456,11.9,12.758S223.012,347,224.814,366.84Z" transform="translate(-10.208 -0.105)"/>
            <path class="cls-14" d="M224.813,366.841c1.448,15.946,12.755,43.627,17.138,53.879a35.727,35.727,0,0,1,4.393-.613c-4.445-7.273-17.2-29.626-20.449-51.6a62.934,62.934,0,0,1,.142-18.293c1.71-12.543,5.225-23.209-1.794-38.815v-.013a80.126,80.126,0,0,0-8.677-14.469s-22.2,37.76-5.01-6.249c0,0-10.192-8.036-13.837-13.012a19.95,19.95,0,0,1-4.686,11.716s2.684-21.209-23.9-17.59c0,0-2.039,16.237,21.183,31.876,0,0,35.21,42.464,28.478,44.915,0,0-26.549,4.6-14.371,6.9S223.011,347,224.813,366.841Z" transform="translate(-10.208 -0.105)"/>
            <path class="cls-15" d="M220.743,334.666a20.933,20.933,0,0,0,5.294,15.548c1.71-12.543,5.225-23.209-1.794-38.815C227.108,325.233,221.552,325.23,220.743,334.666Z" transform="translate(-10.208 -0.105)"/>
          </g>
          <g>
            <path class="cls-15" d="M233.841,423.433c-2.726-8.779-9.159-25.273-21.381-35.733,0,0,9.644-7.969,3.314-28.939,0,0-7.924,22.487-2.3-3.677,0,0-3.176-8.913-9.228-11.164s-.018,14.512-4.825,12.778,1.413-8.448.734-15.827-29.475-5.647-29.475-5.647,6.181,28.865,32.525,46.527c19.528,13.092,26.368,33.2,28.6,42.731C232.479,424.116,233.15,423.759,233.841,423.433Z" transform="translate(-10.208 -0.105)"/>
            <path class="cls-14" d="M233.93,423.393c-2.546-8.474-8.68-24.2-21.469-35.693,0,0,3.888-20.614-14.811-29.037a61.31,61.31,0,0,1-26.964-23.438s6.181,28.865,32.525,46.527c19.528,13.092,26.368,33.2,28.6,42.731C232.507,424.1,233.209,423.731,233.93,423.393Z" transform="translate(-10.208 -0.105)"/>
          </g>
          <path class="cls-14" d="M232.391,420.921c-11.83-13.82-31.036-18.469-29.015-26.53,2.131-8.5-9.786-13.56-8.287-8.161s-8.01,8.777-4.258,4.762.143-5.9.143-5.9c-16.444-3.169-34.82,7.98-34.82,7.98s24.168-5.548,42.725,4.288c13.974,7.4,26.363,19.043,31.63,24.339C231.12,421.421,231.754,421.171,232.391,420.921Z" transform="translate(-10.208 -0.105)"/>
        </g>
        <g>
          <polygon class="cls-16" points="649.734 238.847 724.357 238.847 724.357 11.887 649.734 14.125 649.734 238.847"/>
          <polygon class="cls-17" points="563.816 238.847 636.523 238.847 636.523 14.83 563.816 17.01 563.816 238.847"/>
        </g>
        <g>
          <polygon class="cls-18" points="841.161 232.195 915.782 232.195 915.782 5.235 841.161 7.473 841.161 232.195"/>
          <polygon class="cls-19" points="755.241 232.195 827.95 232.195 827.95 8.178 755.241 10.358 755.241 232.195"/>
        </g>
        <g>
          <polygon class="cls-20" points="300.723 300.198 325.774 307.187 325.774 595.099 300.723 594.049 300.723 300.198"/>
          <polygon class="cls-21" points="817.73 460.59 845.775 464.417 845.775 587.394 817.73 586.818 817.73 460.59"/>
          <polygon class="cls-22" points="929.745 377.957 845.775 464.417 845.775 587.394 929.745 504.185 929.745 377.957"/>
          <polygon class="cls-23" points="518.617 242.245 325.774 307.187 325.774 595.099 518.617 536.097 518.617 242.245"/>
        </g>
        <path class="cls-24" d="M676.235,433.785s3.813,61.966-27.826,119.622-87.838,30.46-87.613,6.462S573.175,413.61,573.175,413.61Z" transform="translate(-10.208 -0.105)"/>
        <g>
          <polygon class="cls-25" points="998.845 319.037 503.528 206.566 265.327 279.809 860.645 474.692 998.845 319.037"/>
          <polygon class="cls-26" points="860.645 498.15 265.291 294.255 265.327 279.809 860.645 474.692 860.645 498.15"/>
          <polygon class="cls-27" points="860.645 498.15 998.852 333.453 998.841 319.008 860.645 474.692 860.645 498.15"/>
        </g>
        <polygon class="cls-28" points="902.693 334.939 811.55 437.986 556.781 356.569 663.325 280.793 902.693 334.939"/>
        <polygon class="cls-29" points="656.173 273.576 534.36 359.068 333.318 292.938 463.266 231.674 656.173 273.576"/>
        <g>
          <polygon class="cls-13" points="608.144 277.201 505.465 254.115 480.406 267.49 587.724 296.807 608.144 277.201"/>
          <polygon class="cls-30" points="587.793 300.667 480.458 270.458 480.406 267.49 587.724 296.807 587.793 300.667"/>
          <polygon class="cls-31" points="608.144 277.21 587.724 296.807 587.793 300.667 608.201 280.468 608.144 277.21"/>
          <path class="cls-31" d="M531,224.167,594.312,234.4a1.852,1.852,0,0,1,1.628,1.927l-2.223,42.125-7.518,7.558-56.771-60.4A1.457,1.457,0,0,1,531,224.167Z" transform="translate(-10.208 -0.105)"/>
          <path class="cls-30" d="M524.118,222.446,587.04,232.6a1.841,1.841,0,0,1,1.617,1.919L586.2,286.009l-64.689-17.085,1.048-45.04A1.45,1.45,0,0,1,524.118,222.446Z" transform="translate(-10.208 -0.105)"/>
          <g class="cls-32">
            <path class="cls-33" d="M524.118,222.446,587.04,232.6a1.841,1.841,0,0,1,1.617,1.919l-2.338,43.245-64.691-17.084.931-36.793A1.45,1.45,0,0,1,524.118,222.446Z" transform="translate(-10.208 -0.105)"/>
          </g>
          <path class="cls-30" d="M672.907,127.1c-.872,33.721-3.506,135.063-3.832,141.9-.391,8.177-9.273,8.518-9.273,8.518l4.912-161.852C671.653,116.278,673.071,120.82,672.907,127.1Z" transform="translate(-10.208 -0.105)"/>
          <path class="cls-13" d="M478.97,99.3l184.472,16.252a5.245,5.245,0,0,1,5.1,5.4l-4.59,155.027-190.48-44.2L474.7,103.7C474.724,101.282,476.823,99.114,478.97,99.3Z" transform="translate(-10.208 -0.105)"/>
          <path d="M482.152,106.644l174.263,16.671a4.969,4.969,0,0,1,4.775,5.114l-4.214,145.933-180.1-41.8,1.208-121.776C478.1,108.492,480.106,106.448,482.152,106.644Z" transform="translate(-10.208 -0.105)"/>
          <g class="cls-32">
            <path class="cls-34" d="M568.453,196.278C549.143,179.31,546.1,153.86,523.1,141.054c-17.562-9.779-31.676,8.859-48.759.429L474.7,103.7c.023-2.42,2.122-4.588,4.269-4.4l184.472,16.252a5.245,5.245,0,0,1,5.1,5.4l-1.874,63.31C666.255,184.55,625.81,246.679,568.453,196.278Z" transform="translate(-10.208 -0.105)"/>
          </g>
          <path class="cls-30" d="M662.524,281.151a2.537,2.537,0,0,1-3.029,1.556L473.4,238.221a.882.882,0,0,1-.6-1.089l.676-5.353,190.661,44.245Z" transform="translate(-10.208 -0.105)"/>
          <g>
            <polygon class="cls-30" points="474.345 117.039 643.222 135.063 643.3 132.044 474.419 115.064 474.345 117.039"/>
            <polygon class="cls-30" points="474.217 120.43 481.641 121.301 481.717 119.28 474.291 118.455 474.217 120.43"/>
            <polygon class="cls-30" points="570.435 131.721 643.087 140.246 643.165 137.225 570.515 129.15 570.435 131.721"/>
            <polygon class="cls-30" points="495.655 122.946 556.701 130.109 556.781 127.623 495.73 120.837 495.655 122.946"/>
            <polygon class="cls-30" points="603.065 140.329 642.953 145.434 643.031 142.411 603.145 137.553 603.065 140.329"/>
            <polygon class="cls-30" points="474.089 123.823 509.916 128.408 509.994 126.209 474.164 121.846 474.089 123.823"/>
            <polygon class="cls-30" points="523.077 130.092 580.814 137.482 580.894 134.844 523.155 127.812 523.077 130.092"/>
            <polygon class="cls-30" points="473.389 133.88 642.478 159.764 642.55 156.736 473.49 131.205 473.389 133.88"/>
            <polygon class="cls-30" points="473.217 138.474 483.118 140.025 483.216 137.327 473.318 135.797 473.217 138.474"/>
            <polygon class="cls-30" points="581.739 155.47 642.356 164.963 642.428 161.933 581.823 152.567 581.739 155.47"/>
            <polygon class="cls-30" points="501.001 142.826 568.519 153.4 568.605 150.524 501.097 140.091 501.001 142.826"/>
            <polygon class="cls-30" points="610.735 165.124 642.234 170.167 642.306 167.135 610.812 162.156 610.735 165.124"/>
            <polygon class="cls-30" points="473.045 143.073 518.201 150.304 518.294 147.53 473.146 140.393 473.045 143.073"/>
            <polygon class="cls-30" points="533.253 152.715 591.303 162.011 591.385 159.085 533.343 149.909 533.253 152.715"/>
            <polygon class="cls-30" points="472.837 148.566 642.09 176.387 642.159 173.351 472.938 145.883 472.837 148.566"/>
            <polygon class="cls-30" points="472.665 153.171 482.571 154.834 482.672 152.131 472.765 150.487 472.665 153.171"/>
            <polygon class="cls-30" points="581.285 171.411 641.968 181.601 642.037 178.563 581.367 168.5 581.285 171.411"/>
            <polygon class="cls-30" points="500.471 157.84 568.053 169.189 568.139 166.305 500.568 155.099 500.471 157.84"/>
            <polygon class="cls-30" points="610.31 181.413 641.844 186.821 641.915 183.779 610.388 178.438 610.31 181.413"/>
            <polygon class="cls-30" points="472.49 157.781 517.687 165.53 517.779 162.75 472.591 155.094 472.49 157.781"/>
            <polygon class="cls-30" points="532.751 168.113 590.858 178.077 590.94 175.144 532.843 165.301 532.751 168.113"/>
            <polygon class="cls-30" points="472.297 162.914 641.709 192.634 641.781 189.59 472.4 160.226 472.297 162.914"/>
            <polygon class="cls-30" points="472.125 167.531 482.04 169.305 482.139 166.594 472.226 164.84 472.125 167.531"/>
            <polygon class="cls-30" points="580.842 186.99 641.585 197.863 641.657 194.816 580.924 184.071 580.842 186.99"/>
            <polygon class="cls-30" points="499.953 172.512 567.597 184.619 567.681 181.728 500.051 169.763 499.953 172.512"/>
            <polygon class="cls-30" points="609.897 197.333 641.464 203.097 641.535 200.046 609.974 194.351 609.897 197.333"/>
            <polygon class="cls-30" points="471.95 172.15 517.183 180.408 517.277 177.621 472.051 169.458 471.95 172.15"/>
            <polygon class="cls-30" points="532.261 183.16 590.425 193.778 590.505 190.837 532.351 180.341 532.261 183.16"/>
            <polygon class="cls-30" points="471.776 176.774 481.698 178.621 481.796 175.905 471.877 174.08 471.776 176.774"/>
            <polygon class="cls-30" points="580.556 197.02 641.342 208.334 641.413 205.281 580.638 194.096 580.556 197.02"/>
            <polygon class="cls-30" points="499.621 181.956 567.303 194.553 567.387 191.657 499.717 179.204 499.621 181.956"/>
            <polygon class="cls-30" points="609.63 207.584 641.218 213.576 641.289 210.522 609.707 204.596 609.63 207.584"/>
            <polygon class="cls-30" points="471.602 181.402 516.859 189.986 516.953 187.194 471.705 178.706 471.602 181.402"/>
            <polygon class="cls-30" points="531.946 192.848 590.144 203.888 590.225 200.942 532.037 190.024 531.946 192.848"/>
            <polygon class="cls-30" points="471.408 186.556 641.081 219.416 641.152 216.358 471.509 183.858 471.408 186.556"/>
            <polygon class="cls-30" points="471.234 191.191 481.162 193.149 481.263 190.428 471.335 188.49 471.234 191.191"/>
            <polygon class="cls-30" points="580.109 212.666 640.959 224.668 641.031 221.608 580.193 209.735 580.109 212.666"/>
            <polygon class="cls-30" points="499.1 196.687 566.843 210.049 566.929 207.146 499.198 193.927 499.1 196.687"/>
            <polygon class="cls-30" points="609.212 223.574 640.835 229.925 640.907 226.862 609.291 220.578 609.212 223.574"/>
            <polygon class="cls-30" points="471.06 195.828 516.353 204.925 516.447 202.126 471.161 193.126 471.06 195.828"/>
            <polygon class="cls-30" points="531.454 207.958 589.709 219.656 589.791 216.703 531.545 205.127 531.454 207.958"/>
            <polygon class="cls-30" points="470.852 201.371 640.688 236.207 640.76 233.14 470.953 198.665 470.852 201.371"/>
            <polygon class="cls-30" points="470.675 206.017 480.614 208.091 480.712 205.362 470.778 203.31 470.675 206.017"/>
            <polygon class="cls-30" points="579.651 228.76 640.567 241.473 640.638 238.404 579.735 225.821 579.651 228.76"/>
            <polygon class="cls-30" points="498.566 211.838 566.372 225.989 566.458 223.077 498.663 209.071 498.566 211.838"/>
            <polygon class="cls-30" points="608.783 240.024 640.443 246.744 640.514 243.673 608.863 237.02 608.783 240.024"/>
            <polygon class="cls-30" points="470.501 210.666 515.834 220.291 515.928 217.484 470.604 207.958 470.501 210.666"/>
            <polygon class="cls-30" points="530.948 223.5 589.259 235.878 589.341 232.916 531.041 220.662 530.948 223.5"/>
            <polygon class="cls-30" points="470.306 215.847 640.304 252.616 640.377 249.542 470.408 213.135 470.306 215.847"/>
            <polygon class="cls-30" points="470.131 220.504 480.076 222.691 480.177 219.956 470.234 217.79 470.131 220.504"/>
            <polygon class="cls-30" points="579.203 244.489 640.182 257.897 640.254 254.82 579.287 241.541 579.203 244.489"/>
            <polygon class="cls-30" points="498.043 226.642 565.91 241.566 565.996 238.647 498.142 223.868 498.043 226.642"/>
            <polygon class="cls-30" points="608.365 256.1 640.058 263.183 640.13 260.103 608.443 253.088 608.365 256.1"/>
            <polygon class="cls-30" points="469.957 225.164 515.325 235.306 515.422 232.493 470.058 222.449 469.957 225.164"/>
            <polygon class="cls-30" points="530.452 238.687 588.82 251.732 588.902 248.761 530.545 235.841 530.452 238.687"/>
          </g>
        </g>
        <g>
          <polygon class="cls-13" points="841.739 339.709 715.359 311.182 684.108 327.711 816.085 363.936 841.739 339.709"/>
          <polygon class="cls-30" points="816.085 368.706 684.108 331.377 684.108 327.711 816.085 363.936 816.085 368.706"/>
          <polygon class="cls-31" points="841.739 339.72 816.085 363.936 816.085 368.706 841.739 343.746 841.739 339.72"/>
          <path class="cls-31" d="M745.152,274.153,823.168,286.8a2.239,2.239,0,0,1,1.97,2.38l-3.655,52.053-9.451,9.339-68.848-74.633A1.836,1.836,0,0,1,745.152,274.153Z" transform="translate(-10.208 -0.105)"/>
          <path class="cls-30" d="M736.689,272.026l77.532,12.543a2.228,2.228,0,0,1,1.958,2.371l-4.147,63.628-79.568-21.11,2.269-55.655A1.827,1.827,0,0,1,736.689,272.026Z" transform="translate(-10.208 -0.105)"/>
          <g class="cls-32">
            <path class="cls-35" d="M736.689,272.026l77.532,12.543a2.228,2.228,0,0,1,1.958,2.371l-3.823,53.436-79.566-21.11,1.943-45.463A1.827,1.827,0,0,1,736.689,272.026Z" transform="translate(-10.208 -0.105)"/>
          </g>
          <path class="cls-30" d="M922.6,154.207c-1.807,41.668-7.245,166.892-7.8,175.343-.662,10.1-11.642,10.526-11.642,10.526l9.56-199.992C921.283,140.839,922.936,146.451,922.6,154.207Z" transform="translate(-10.208 -0.105)"/>
          <path class="cls-13" d="M683.556,119.864l227.6,20.082c3.8.335,6.357,3.085,6.187,6.673l-9.016,191.559L673.91,283.559l4.279-158.26C678.268,122.309,680.909,119.63,683.556,119.864Z" transform="translate(-10.208 -0.105)"/>
          <path d="M687.333,128.934l214.97,20.6a6.013,6.013,0,0,1,5.789,6.319l-8.357,180.323L678.09,284.532l4.122-150.474C682.287,131.218,684.808,128.692,687.333,128.934Z" transform="translate(-10.208 -0.105)"/>
          <g class="cls-32">
            <path class="cls-36" d="M792.038,239.692c-23.5-20.967-26.708-52.414-54.853-68.239-21.488-12.083-39.329,10.946-60.258.53l1.262-46.685c.08-2.99,2.721-5.669,5.367-5.436l227.6,20.082c3.8.335,6.357,3.085,6.187,6.673l-3.68,78.229C913.138,225.2,861.825,301.969,792.038,239.692Z" transform="translate(-10.208 -0.105)"/>
          </g>
          <path class="cls-30" d="M906.446,344.565a3.19,3.19,0,0,1-3.775,1.923l-228.992-54.97a1.069,1.069,0,0,1-.718-1.347l.949-6.613,234.636,54.67Z" transform="translate(-10.208 -0.105)"/>
          <g>
            <polygon class="cls-30" points="679.864 141.804 888.15 164.075 888.309 160.346 679.998 139.364 679.864 141.804"/>
            <polygon class="cls-30" points="679.633 145.995 688.79 147.071 688.924 144.573 679.767 143.553 679.633 145.995"/>
            <polygon class="cls-30" points="798.282 159.945 887.872 170.48 888.032 166.748 798.435 156.769 798.282 159.945"/>
            <polygon class="cls-30" points="706.068 149.103 781.346 157.954 781.498 154.883 706.207 146.498 706.068 149.103"/>
            <polygon class="cls-30" points="838.416 170.582 887.595 176.891 887.755 173.155 838.573 167.153 838.416 170.582"/>
            <polygon class="cls-30" points="679.402 150.187 723.573 155.852 723.716 153.136 679.536 147.744 679.402 150.187"/>
            <polygon class="cls-30" points="739.799 157.933 810.983 167.064 811.138 163.804 739.944 155.116 739.799 157.933"/>
            <polygon class="cls-30" points="678.322 162.614 886.698 194.596 886.849 190.856 678.503 159.309 678.322 162.614"/>
            <polygon class="cls-30" points="678.009 168.291 690.208 170.206 690.389 166.874 678.19 164.983 678.009 168.291"/>
            <polygon class="cls-30" points="811.737 189.292 886.435 201.022 886.587 197.278 811.903 185.704 811.737 189.292"/>
            <polygon class="cls-30" points="712.246 173.667 795.448 186.733 795.616 183.18 712.425 170.288 712.246 173.667"/>
            <polygon class="cls-30" points="847.358 201.22 886.173 207.452 886.324 203.706 847.518 197.554 847.358 201.22"/>
            <polygon class="cls-30" points="677.696 173.972 733.337 182.908 733.514 179.481 677.879 170.661 677.696 173.972"/>
            <polygon class="cls-30" points="751.884 185.887 823.415 197.374 823.579 193.758 752.056 182.421 751.884 185.887"/>
            <polygon class="cls-30" points="677.322 180.76 885.858 215.138 886.011 211.386 677.505 177.446 677.322 180.76"/>
            <polygon class="cls-30" points="677.009 186.451 689.214 188.506 689.397 185.165 677.192 183.135 677.009 186.451"/>
            <polygon class="cls-30" points="810.832 208.989 885.595 221.581 885.749 217.826 810.998 205.392 810.832 208.989"/>
            <polygon class="cls-30" points="711.267 192.22 794.53 206.244 794.698 202.681 711.446 188.832 711.267 192.22"/>
            <polygon class="cls-30" points="846.482 221.349 885.33 228.03 885.484 224.272 846.642 217.672 846.482 221.349"/>
            <polygon class="cls-30" points="676.694 192.146 732.373 201.722 732.549 198.286 676.877 188.827 676.694 192.146"/>
            <g>
              <polygon class="cls-30" points="763.255 203.504 751.105 201.439 750.932 204.914 763.255 207.033 763.255 203.504"/>
              <polygon class="cls-30" points="767.738 204.266 767.738 207.804 781.449 210.162 781.449 206.595 767.738 204.266"/>
              <polygon class="cls-30" points="786.457 207.446 786.457 211.025 822.52 217.227 822.682 213.601 786.457 207.446"/>
            </g>
            <polygon class="cls-30" points="676.345 198.49 885.038 235.214 885.192 231.452 676.528 195.168 676.345 198.49"/>
            <polygon class="cls-30" points="676.03 204.194 688.246 206.387 688.426 203.037 676.215 200.87 676.03 204.194"/>
            <polygon class="cls-30" points="809.949 228.24 884.774 241.675 884.927 237.909 810.113 224.633 809.949 228.24"/>
            <polygon class="cls-30" points="710.311 210.349 793.633 225.311 793.801 221.737 710.49 206.953 710.311 210.349"/>
            <polygon class="cls-30" points="845.627 241.02 884.509 248.141 884.662 244.373 845.787 237.335 845.627 241.02"/>
            <polygon class="cls-30" points="675.717 209.903 731.43 220.106 731.606 216.662 675.9 206.577 675.717 209.903"/>
            <g>
              <polygon class="cls-30" points="771.868 223.951 750.176 220.024 750.002 223.507 771.868 227.512 771.868 223.951"/>
              <polygon class="cls-30" points="791.907 227.579 791.907 231.182 821.644 236.628 821.808 232.993 791.907 227.579"/>
            </g>
            <polygon class="cls-30" points="675.402 215.616 687.62 217.897 687.803 214.542 675.585 212.287 675.402 215.616"/>
            <polygon class="cls-30" points="809.378 240.634 884.244 254.613 884.4 250.841 809.544 237.021 809.378 240.634"/>
            <polygon class="cls-30" points="709.696 222.02 793.056 237.586 793.224 234.007 709.875 218.618 709.696 222.02"/>
            <polygon class="cls-30" points="845.077 253.687 883.98 261.091 884.135 257.316 845.237 249.995 845.077 253.687"/>
            <polygon class="cls-30" points="675.087 221.334 730.823 231.941 731.001 228.492 675.27 218.002 675.087 221.334"/>
            <polygon class="cls-30" points="749.403 235.478 821.079 249.12 821.245 245.478 749.577 231.989 749.403 235.478"/>
            <polygon class="cls-30" points="674.736 227.702 883.686 268.307 883.839 264.528 674.919 224.368 674.736 227.702"/>
            <polygon class="cls-30" points="674.421 233.43 686.647 235.85 686.83 232.486 674.604 230.093 674.421 233.43"/>
            <polygon class="cls-30" points="808.491 259.965 883.421 274.796 883.574 271.015 808.657 256.344 808.491 259.965"/>
            <polygon class="cls-30" points="708.736 240.221 792.154 256.733 792.322 253.146 708.914 236.812 708.736 240.221"/>
            <polygon class="cls-30" points="844.216 273.445 883.154 281.292 883.31 277.507 844.378 269.742 844.216 273.445"/>
            <polygon class="cls-30" points="674.106 239.161 729.877 250.401 730.054 246.943 674.289 235.821 674.106 239.161"/>
            <g>
              <polygon class="cls-30" points="791.907 259.279 791.907 262.902 820.201 268.605 820.365 264.954 791.907 259.279"/>
              <polygon class="cls-30" points="771.868 255.282 748.645 250.65 748.471 254.149 771.868 258.864 771.868 255.282"/>
            </g>
            <polygon class="cls-30" points="673.728 246.008 882.837 289.054 882.992 285.265 673.913 242.666 673.728 246.008"/>
            <polygon class="cls-30" points="673.411 251.751 685.645 254.313 685.828 250.941 673.596 248.404 673.411 251.751"/>
            <polygon class="cls-30" points="807.578 279.853 882.572 295.562 882.728 291.769 807.744 276.221 807.578 279.853"/>
            <polygon class="cls-30" points="707.749 258.942 791.228 276.429 791.396 272.831 707.929 255.524 707.749 258.942"/>
            <polygon class="cls-30" points="843.333 293.771 882.305 302.075 882.461 298.279 843.493 290.058 843.333 293.771"/>
            <polygon class="cls-30" points="673.096 257.496 728.903 269.388 729.081 265.92 673.281 254.148 673.096 257.496"/>
            <polygon class="cls-30" points="747.508 273.352 819.295 288.648 819.461 284.988 747.685 269.845 747.508 273.352"/>
            <polygon class="cls-30" points="672.743 263.896 882.009 309.332 882.165 305.532 672.928 260.545 672.743 263.896"/>
            <polygon class="cls-30" points="672.425 269.651 684.666 272.353 684.851 268.973 672.61 266.297 672.425 269.651"/>
            <polygon class="cls-30" points="806.685 299.288 881.743 315.856 881.898 312.054 806.851 295.647 806.685 299.288"/>
            <polygon class="cls-30" points="706.784 277.235 790.322 295.676 790.491 292.069 706.965 273.808 706.784 277.235"/>
            <polygon class="cls-30" points="842.468 313.636 881.476 322.388 881.631 318.582 842.63 309.914 842.468 313.636"/>
            <polygon class="cls-30" points="672.108 275.411 727.951 287.94 728.129 284.465 672.293 272.055 672.108 275.411"/>
            <polygon class="cls-30" points="746.572 292.119 818.411 308.237 818.577 304.567 746.746 288.602 746.572 292.119"/>
          </g>
        </g>
        <g>
          <path class="cls-37" d="M613.351,339.265a72.012,72.012,0,0,1-1.973-9.72c-.55-4.72.79-14.892.263-21.741s4.212-8.769-1.208-13.244-5.155,1.914-8.241,2.485a4.09,4.09,0,0,0,.679,3.582s-1.708-2.568-5-7.473-8.14-1.227-8.14-1.227-4.336-3.942-7.92-.995-3.391-6.9-8.661-6.961-4.277,4.232-12.1,5.2-5.567,34.5,11.749,44.438S613.351,339.265,613.351,339.265Z" transform="translate(-10.208 -0.105)"/>
          <g>
            <path class="cls-38" d="M308.868,480.162l149.6-33.464a4.545,4.545,0,0,1,3.989-.094l147.857,44.829c6.042,3,12.638,24.591-6.1,31.3l-155.543,47.31a4.6,4.6,0,0,1-3.983.229L307.65,509.984C295.313,504.967,300.069,482.5,308.868,480.162Z" transform="translate(-10.208 -0.105)"/>
            <path class="cls-39" d="M313.045,478.536l145.723-47.892a4.54,4.54,0,0,1,3.991-.082L608.326,489.88c6.048,3.015,8.375,17.883-3.725,22.593L448.966,559.3a4.6,4.6,0,0,1-3.985.212L307.345,498.426C300.312,495.26,300.682,481.475,313.045,478.536Z" transform="translate(-10.208 -0.105)"/>
          </g>
          <path class="cls-40" d="M335.791,392.528c10.678-23.066,14.5-59.749,14.5-59.749L458.354,374c.641.428,217.881,42.6,217.881,59.788,0,40.323-136.047,93.714-247.323,93.714-12.468,0-62.088-.882-92.819-31.132C306.323,467.06,325.113,415.593,335.791,392.528Z" transform="translate(-10.208 -0.105)"/>
          <path class="cls-41" d="M335.791,392.528c10.678-23.066,14.5-59.749,14.5-59.749L458.354,374c.641.428,217.881,42.6,217.881,59.788,0,11.547-11.178,24.164-29.716,36.3-16.946-13.329-144.053-47.784-139.225-23.893,7.361,36.424-51.83,67.583-15.3,76.253a424,424,0,0,1-63.078,5.059c-12.468,0-62.088-.882-92.819-31.132C306.323,467.06,325.113,415.593,335.791,392.528Z" transform="translate(-10.208 -0.105)"/>
          <g>
            <path class="cls-37" d="M501.344,86.882s6.659,13.609-6.443,23.1c0,0,4.968,18.736,2.643,30.823s-8.649,14.944-9,21.3,3.036,22.34-21.841,46.184c0,0-11.478-.418-18.681-2.576s1.12,31.41,1.12,31.41l-55.8-30.3s11.655-23.678,16.5-41.3c5.865-21.31-10.819-51.232,13.043-72S479.079,97.642,501.344,86.882Z" transform="translate(-10.208 -0.105)"/>
            <path class="cls-42" d="M409.815,165.538a40.166,40.166,0,0,0,1.313-9.359,4.665,4.665,0,0,1,2.744,1.021c11.306,9.075,29.861,13.163,30.174,28.8.139,3.768-8.6,29.6-7.189,44.49l-43.518-23.669S405.007,183.149,409.815,165.538Z" transform="translate(-10.208 -0.105)"/>
            <path class="cls-37" d="M414.437,103.739c-9.031,16.333-2.7,35.9-3.309,52.441-.149-.026-.242-.011-.391-.038C410.847,139.484,405.112,120.021,414.437,103.739Z" transform="translate(-10.208 -0.105)"/>
            <path d="M501.344,86.882s6.529,13.39-6.159,22.873c-5.621-1.4-5.422,11.546-5.731,17.8-.475,9.61-8.211,14.142-10.749,27.083a1.061,1.061,0,0,1-2.078.056c-2.351-9.56-7.243-10.516-17.276-.807-4.972,4.812-8.676,10.177-13.312,15.151-9.182,9.851-36.928,2.912-37.894,2.95a64.7,64.7,0,0,0,1.706-6.464c4.554-21.628-10.821-51.232,13.041-72S479.079,97.642,501.344,86.882Z" transform="translate(-10.208 -0.105)"/>
            <g class="cls-32">
              <path class="cls-43" d="M472.628,146.182a2.543,2.543,0,0,1-.746,3.491c-.164.114-5.718,4.136-8.564,17.571a2.542,2.542,0,0,1-2.79,2c-.074-.009-.147-.021-.221-.038a2.541,2.541,0,0,1-1.96-3.012c3.367-15.9,10.472-20.592,10.772-20.783A2.539,2.539,0,0,1,472.628,146.182Z" transform="translate(-10.208 -0.105)"/>
            </g>
          </g>
          <path class="cls-44" d="M503.037,354.976c-11.787,21.168,2.264,50.3-7.594,94.38,0,0-119.437-6.247-153.657-45.688,0,0-1.983-81.6-1.983-107.6,0-27.774-5.277-108.589,72.48-91.755C477.239,218.376,540.444,287.793,503.037,354.976Z" transform="translate(-10.208 -0.105)"/>
          <path class="cls-45" d="M512.285,330.948a94.691,94.691,0,0,1-12.423-6.323c-12.753-7.645-23.967-18.232-35.117-27.983-11.214-9.8-23.339-18.858-32.619-30.6-8.552-10.822-15.392-22.873-24.25-33.448-7.13-8.51-8.411-20.477-2.435-29.537-70.6-10.715-65.636,66.086-65.636,93.017,0,26,1.983,107.6,1.983,107.6,34.22,39.441,153.657,45.688,153.657,45.688,9.859-44.079-4.193-73.212,7.594-94.38A88.688,88.688,0,0,0,512.285,330.948Z" transform="translate(-10.208 -0.105)"/>
          <path class="cls-46" d="M385.729,282.886c0,.92,0,1.875.017,2.828a30.477,30.477,0,0,1,.223-3.561S385.9,282.409,385.729,282.886Z" transform="translate(-10.208 -0.105)"/>
          <path class="cls-44" d="M466.32,229.88c15.289-.73,42,15.892,53.532,28.641s19.841,12.441,23.918,23.015,16.846,14.368,17.764,18.612,15.776,1.108,21.591,18.125c0,0,13-3.249,20.423,6.313s15.755,1.3,17.072,28.934c.992,20.751-12.306,28.37-25.273,28.989s-36.5-2.789-45.969-11.678c-15.858-14.894-87.817-37.147-100.566-74.059S432.83,231.477,466.32,229.88Z" transform="translate(-10.208 -0.105)"/>
          <path class="cls-47" d="M620.619,353.52c-.678-14.216-3.214-18.926-6.527-21.456a25.309,25.309,0,0,1-13.1,19.5c-11.337,6.427-24.652,3.492-36.019-1.211-2.1-.869-4.161-1.829-6.226-2.773-1.723-.786-3.025-1.382-4.025-1.841-.311-.13-1.107-.478-2.7-1.186-8.626-3.823-16.942-8.322-25.572-12.113-16.549-7.268-33.178-12.952-48.417-23.02a155.5,155.5,0,0,1-35.083-31.892c1.527,6.059,3.531,12.51,5.859,19.247,12.749,36.912,84.708,59.165,100.566,74.059,9.466,8.889,33,12.3,45.969,11.678S621.611,374.271,620.619,353.52Z" transform="translate(-10.208 -0.105)"/>
          <g>
            <path class="cls-48" d="M304.495,326.857l164.068,56.078a13.722,13.722,0,0,1,9.283,12.985v89.534A13.722,13.722,0,0,1,459.293,498.3L295.225,436.571a13.723,13.723,0,0,1-8.892-12.844V339.841A13.723,13.723,0,0,1,304.495,326.857Z" transform="translate(-10.208 -0.105)"/>
            <path class="cls-49" d="M303.438,331.968,459.57,385.333a13.058,13.058,0,0,1,8.835,12.358v85.2a13.057,13.057,0,0,1-17.656,12.222L294.617,436.376a13.062,13.062,0,0,1-8.461-12.224V344.324A13.059,13.059,0,0,1,303.438,331.968Z" transform="translate(-10.208 -0.105)"/>
            <path class="cls-44" d="M464.023,486.118v-85.2a13.057,13.057,0,0,0-8.835-12.356L299.056,335.193a12.916,12.916,0,0,0-9.629.487,13.026,13.026,0,0,1,14.011-3.712L459.57,385.333a13.058,13.058,0,0,1,8.835,12.356v85.2a13,13,0,0,1-7.651,11.865A12.921,12.921,0,0,0,464.023,486.118Z" transform="translate(-10.208 -0.105)"/>
            <path class="cls-50" d="M369.425,398.269h0c4.645,1.031,7.857,4.4,7.857,8.237v179.3c0,4.863-5.09,8.747-11.193,8.544h0c-5.754-.191-10.291-3.96-10.291-8.544v-179.3C355.8,400.847,362.579,396.748,369.425,398.269Z" transform="translate(-10.208 -0.105)"/>
            <path class="cls-51" d="M366.646,402.4h0a8.552,8.552,0,0,1,6.252,8.237v179.3a8.551,8.551,0,0,1-8.909,8.544h0a8.55,8.55,0,0,1-8.191-8.544v-179.3A8.551,8.551,0,0,1,366.646,402.4Z" transform="translate(-10.208 -0.105)"/>
          </g>
        </g>
        <g>
          <path class="cls-15" d="M869.154,385.329H819.212l7.249,44.93h0c.263,5.065,8.193,9.062,17.721,9.062s17.453-3.993,17.721-9.056Z" transform="translate(-10.208 -0.105)"/>
          <path class="cls-52" d="M850.708,416.946c-7.115,4.5-16.045,9.314-24.568,11.316l.321,2h0c.263,5.065,8.193,9.062,17.721,9.062s17.453-3.993,17.721-9.056l4.63-28.7A55.676,55.676,0,0,1,850.708,416.946Z" transform="translate(-10.208 -0.105)"/>
          <path class="cls-53" d="M844.183,378.8c14.167,0,25.343,2.917,24.971,6.42-.359,3.4-11.535,6.088-24.971,6.088s-24.612-2.687-24.971-6.088C818.84,381.721,830.016,378.8,844.183,378.8Z" transform="translate(-10.208 -0.105)"/>
          <path class="cls-30" d="M844.183,380c13.19,0,23.635,2.365,23.335,5.215-.294,2.779-10.737,4.981-23.335,4.981s-23.04-2.2-23.334-4.981C820.548,382.366,830.993,380,844.183,380Z" transform="translate(-10.208 -0.105)"/>
        </g>
      </g>
    </g>
  </g>
</svg>
