<svg xmlns="http://www.w3.org/2000/svg" viewBox="0 0 650.95 380.61"><defs><style>.cls-1{isolation:isolate;}.cls-2,.cls-6{fill:none;stroke-miterlimit:10;}.cls-2{stroke:#1a8cff;stroke-width:2.82px;}.cls-3{fill:#0033a3;}.cls-13,.cls-4{fill:#007cff;}.cls-5{fill:#003cbe;}.cls-6{stroke:#007cff;stroke-width:6.01px;}.cls-7{fill:#1a8cff;}.cls-8{fill:#47a1ff;}.cls-9{fill:#8bcbff;}.cls-10{fill:#1c8afd;}.cls-11{fill:#67b3ff;}.cls-12{fill:#00d981;}.cls-13{opacity:0.5;}.cls-14,.cls-17{fill:#d78d36;}.cls-15{fill:#ca7e2f;}.cls-16{fill:#be7129;}.cls-17{mix-blend-mode:multiply;opacity:0.3;}.cls-18{fill:#dbecfe;}.cls-19{fill:#0050d5;}.cls-20{fill:#93c5fa;}.cls-21{fill:#ffda00;}.cls-22{fill:#bddcfc;}.cls-23{fill:#eaaa4c;}.cls-24{fill:#e29f4c;}</style></defs><g class="cls-1"><g id="Layer_1" data-name="Layer 1"><path class="cls-2" d="M495.85,276.41,443.58,163c-2.59-3.49-42.8-2.28-47.13-1.94L145.67,180.33a12.65,12.65,0,0,0-10.78,17.32l70,175a12.66,12.66,0,0,0,15.17,7.49l269.05-84A12.66,12.66,0,0,0,495.85,276.41Z"/><path class="cls-3" d="M457.73,251.5l34.68,63.65c1.77,3.76-3.4,11.09-7.35,12.37L372.43,363.81a10.48,10.48,0,0,1-13.15-6.64L336,287.88c-1.95-5.8,2.92-15.82,8.85-17.3l105-22.82A6.89,6.89,0,0,1,457.73,251.5Z"/><path class="cls-4" d="M594.71,109,383.53,130l52.7,86.18,210.21-43.8a5.65,5.65,0,0,0,2.93-9.45l-50-52.24A5.64,5.64,0,0,0,594.71,109Z"/><path class="cls-5" d="M333,90.48,83.2,111.29a12.21,12.21,0,0,0-10,17.41l61.33,128.79,265.32-53A9,9,0,0,0,406,190.08l-52.43-65.7C351.91,122.2,335.75,90.49,333,90.48Z"/><path class="cls-5" d="M461,246.75l31.44,66.53a6.88,6.88,0,0,1-4.11,9.49L375.73,359.06a10.48,10.48,0,0,1-13.15-6.63l-23.28-69.3a10.47,10.47,0,0,1,7.39-13.5L453.14,243A6.89,6.89,0,0,1,461,246.75Z"/><path class="cls-6" d="M536.6,237.75,443.06,111.91a13.44,13.44,0,0,0-11.8-5.38L165.51,127a13.43,13.43,0,0,0-11.43,18.37l74.18,190.51a13.41,13.41,0,0,0,16.08,7.93l285.12-85.11A13.41,13.41,0,0,0,536.6,237.75Z"/><path class="cls-7" d="M567.94,215,462.24,77.06a10.86,10.86,0,0,0-9.54-4.35L187.83,86.87c-9,.7-17.08,16.34-13.72,24.75l70.82,177.06a23.47,23.47,0,0,0,28.14,13.88l285.53-71C563.81,230.08,571.17,219.34,567.94,215Z"/><path class="cls-8" d="M567.11,212.94l-100-142.79a10.84,10.84,0,0,0-9.52-4.37L190.37,85.43a13.42,13.42,0,0,0-11.49,18.33L249.1,281.05a23.48,23.48,0,0,0,28.1,14L563,225A7.71,7.71,0,0,0,567.11,212.94Z"/><path class="cls-9" d="M387.33,228.54l117-44.15c3.28-1,15.64-5.49,14.28-8.06l-47.68-76.19c-.32.49-16.48-20.37-19.66-20l-109.12,21c-3.26.89-5,4.64-3.79,8.35L379,225.46A6.08,6.08,0,0,0,387.33,228.54Z"/><path class="cls-10" d="M471.27,100.31s-6.62-12.4-9.5-16.72c-2.29-3.44-6.65-5.78-9.83-5.4l-109.78,8c-3.26.89-5,19.67-3.79,23.38l1.83,4.55"/><polygon class="cls-11" points="368.38 175.67 489.29 156.01 464.87 111.62 346.99 125.71 368.38 175.67"/><polygon class="cls-11" points="380.97 218.84 512.37 193.77 493.06 162.89 355.93 184.85 380.97 218.84"/><polygon class="cls-12" points="519.52 317.78 613.49 285.77 542.87 217.27 519.52 317.78"/><path class="cls-11" d="M366,176.41c25.11,14.92,55.26,22.16,84.33,19.33,28.9-2.82,63.91-17.23,73.81-44.48l12.66,17.94c.43,37.17-18.35,58.71-39.1,71.39L419.65,260a237.83,237.83,0,0,1-78.8-14.21c-38.16-13.59-94.83-21.42-108.27-6.5l-48.1-121.4C231.18,106.07,284.61,128,366,176.41Z"/><path class="cls-8" d="M366,176.41c25.11,14.92,58.81,19.83,82.47,18.27,29-1.91,65.77-16.17,75.67-43.42l1.33,2c-9.17,28.83-33.91,47.35-60.78,52.59-49.85,9.73-120.15-16.18-146.15-30.8-52.43-29.49-89.13-47.84-123.21-29.49L184.48,117.9C231.18,106.07,284.61,128,366,176.41Z"/><path class="cls-13" d="M0,0S90.85,32.23,98.78,34.79c.31.1,13.87,4.53,23,8,18,6.9,50.8,23.22,64.51,38.54a109,109,0,0,1,9.35,11.78c.2.31.38.62.57.93s.36.62.54.93l.38.7.27.49.2.38.33.65c.11.21.22.43.32.64.21.42.41.84.61,1.26l.19.42c7.1,15.35,10.9,35.7,49.32,73.09l1.26,1.22c4.58,4.41,13.12,18.27,20.82,30.65h0c4.27,6.87,13.61,31.91,23.71,19.91h0a23.39,23.39,0,0,0,5.81-10L312,250a5.26,5.26,0,0,0,6.67,3.28l104-24.6a5.25,5.25,0,0,0,3.28-6.66l-17.53-38.73c7.24,7.88,18.25,7.75,19,.41.27-2.65-30.28-78.47-33.08-82.58-2.93-4.31-55.22-46-60-47.88-5.43-2.16-46.11-5.57-55.33-5.92C242.67,45.94,211.18,0,211.18,0H102.34S30.12.07,7.82,0H0ZM287.78,178.58c-8.41-12-17.72-23.57-18-27.66a30,30,0,0,1,.72-8.37c1.5.71,3,1.34,4.58,1.91A82.65,82.65,0,0,0,287,148.41c1,.27,2.09.53,3.12.83l-6.09,2.06a5.26,5.26,0,0,0-3.29,6.67l3.79,11.15h0Z"/><path class="cls-14" d="M262.17,79.83c1-3.44,2.11-7.1,4.85-9.4s6.46-2.76,10-2.9c13.35-.55,26.53,2.44,39.25,6.19,4.68,1.38,9.11,2.75,13.17,5.41,3.5,2.29,7.66,2.19,11.63,3.2,9.55,2.43,18.29,7.54,25.75,13.9q1.68,1.44,3.29,3c11,10.45,19.12,23.46,27.15,36.32l11.32,18.13c2.91,4.66,5.94,9.94,4.83,15.32-1.18,5.76-7,9.68-12.89,10.28s-11.64-1.45-17-3.94a100.2,100.2,0,0,1-29-20.56c-6.14-6.26-12.43-13.85-21.17-14.52-5-.37-9.74,1.63-14.5,3-18.08,5.35-39.57,2.06-54.73-9.41a10.72,10.72,0,0,1-2.87-3.62c-1.34-2.22-3-4.15-4.05-6.54a30,30,0,0,1-2.44-14.16C255.3,99.29,259.37,89.59,262.17,79.83Z"/><path class="cls-15" d="M293.39,177.15c3.67-3,7.42-6,9.7-10.14a13.93,13.93,0,0,0,1.64-9.51A6.61,6.61,0,0,0,303,154c-1.41-1.33-2.52-3-3.93-4.26-2.53-2.33-6.07-3.14-9.4-4A71.29,71.29,0,0,1,272.19,139a13.3,13.3,0,0,1-2.67-1.64c-.74-.65-1.48-1.31-2.2-2-1.45-1.36-2.85-2.76-4.18-4.23a46.73,46.73,0,0,1-6.85-9.5,23.35,23.35,0,0,1-2.77-7.24,3.75,3.75,0,0,1,.1-1.63c.37-1.2,1.16-2.33,1.65-3.49.84-2,2-3.58,2.73-5.55a12.17,12.17,0,0,1,2-3.6,7,7,0,0,1,3.53-2.28c.7-.19,1.39.06,2.08-.1.35-.09.7-.31,1-.43a14.53,14.53,0,0,1,3-.64,30.3,30.3,0,0,1,6.17.08c25.57,2.32,49.18,14,73.14,23.24a12.31,12.31,0,0,1,4.6,2.59,11.87,11.87,0,0,1,1.91,3L363,140.78a2.69,2.69,0,0,1,.39,1.28,2.64,2.64,0,0,1-.67,1.42c-7.55,9.93-18.27,17-26.46,26.4-3.28,3.77-6.18,7.93-10.09,11-2.12,1.67-4.55,3-6.8,4.47-1.21.8-2.44,1.56-3.7,2.28a59.78,59.78,0,0,1-7.85,3.7,4.22,4.22,0,0,1-3,.34c-1.24-.49-2.08-2-2.79-3.11a24.87,24.87,0,0,0-2.27-2.87A53.28,53.28,0,0,1,293.39,177.15Z"/><path class="cls-16" d="M293.39,177.15c3.67-3,7.42-6,9.7-10.14a13.93,13.93,0,0,0,1.64-9.51A6.61,6.61,0,0,0,303,154c-1.41-1.33-2.52-3-3.93-4.26-2.53-2.33-6.07-3.14-9.4-4A71.29,71.29,0,0,1,272.19,139a13.3,13.3,0,0,1-2.67-1.64,18.49,18.49,0,0,0-3.23-2.63,6,6,0,0,1-1.48-1,25.57,25.57,0,0,1-3.34-4.34,35.07,35.07,0,0,1-4.44-10c5.91,0,11.76,1.14,17.56,2.32L309.71,129a140.44,140.44,0,0,1,16.42,4,6.52,6.52,0,0,1,2.46,1.25,7,7,0,0,1,1.41,2.19Q335.28,147.6,340,159a8.46,8.46,0,0,1,.88,3.56c-.1,1.77-1.26,3.28-2.37,4.66l-9,11.23a10.24,10.24,0,0,1-3.4,3.15,41.25,41.25,0,0,0-4.13,2.12c-.86.53-1.72,1.06-2.56,1.62-1.21.8-2.44,1.56-3.7,2.28a59.78,59.78,0,0,1-7.85,3.7,4.22,4.22,0,0,1-3,.34c-1.24-.49-2.08-2-2.79-3.11a24.87,24.87,0,0,0-2.27-2.87A53.28,53.28,0,0,1,293.39,177.15Z"/><path class="cls-17" d="M292.22,97.29a58.23,58.23,0,0,1,18.24-6.69c3.1-.55,6.18-.31,9.26-.7,1.79-.23,3.55-.36,5.33-.68s3.57-.73,5.37-1c2.55-.41,4.28-6.19,6.71-5.32,2.72,1,6.92,6.55,8.71,8.81,3.35,4.23,7.47,9.33,8.72,14.84a60.77,60.77,0,0,0-16.08,1.26,23.32,23.32,0,0,0-6.35,1.92c-1.36.74-3.18.73-4.69,1a52.39,52.39,0,0,0-9.71,3.06A55.77,55.77,0,0,0,300.8,125a53.3,53.3,0,0,0-11.7,16.57c-.4.9-.78,1.81-1.12,2.74a52.59,52.59,0,0,1-27-12.49,104.09,104.09,0,0,1,15.34-22A68.3,68.3,0,0,1,292.22,97.29Z"/><path class="cls-18" d="M318.59,243.9l100.34-22.13a5.25,5.25,0,0,0,3.28-6.66l-32.08-96.05a5.25,5.25,0,0,0-6.66-3.29l-100.63,22.4c-2.75.93-7,3.64-6.06,6.39l35.14,96.05A5.26,5.26,0,0,0,318.59,243.9Z"/><path class="cls-19" d="M393.91,130.21l-3.78-11.15a5.25,5.25,0,0,0-6.66-3.29l-107.2,12.92a5.26,5.26,0,0,0-3.29,6.67l4.36,11.14"/><circle class="cls-20" cx="286.68" cy="136.23" r="3.25"/><circle class="cls-21" cx="295.87" cy="135.2" r="3.25"/><circle class="cls-12" cx="305.07" cy="134.18" r="3.25"/><polygon class="cls-22" points="312.46 216 405.65 196.21 388.94 142.38 292.02 157.26 312.46 216"/><polygon class="cls-22" points="319.14 236.4 413.75 215.08 408.3 201.02 313.65 221.36 319.14 236.4"/><path class="cls-23" d="M90.41,18.41c-1.49-.2-9.39-.76-10.89-1,31.11,8.84,63,31.24,90.93,47.52,9.73,5.67,11.56,8.65,19.94,16.18,20.45,18.39,7.64,37.76,61.81,90,8.56,8.25,31,49.6,35.86,52.43,8.5,4.95,19.37-13.59,14.52-26.86-5.71-15.62-29.75-41.87-30.18-48.48-1-16.18,14.08-37.85,27.76-45.61,4.73-2.67,23.75-7.94,28.75-5.81,31.93,13.61,47.87,16.93,51.52,19.51,0,0,16.2,36.61,23.2,50.09,1.7,3.28,6,12.47,6,12.47,7.12,9.56,19.61,9.94,20.4,2.11.27-2.65-30.27-78.47-33.07-82.59-2.93-4.3-55.22-46-60-47.87-5.42-2.16-46.1-5.58-55.32-5.92-36.35-1.36-70-44.6-70-44.6h-96"/><path class="cls-24" d="M272.4,148.22c-1-16.18,14.08-37.85,27.76-45.61,4.73-2.67,23.75-7.94,28.75-5.81,31.93,13.61,47.87,16.93,51.52,19.51,0,0,16.2,36.61,23.2,50.09,1.7,3.28,6,12.47,6,12.47,7.12,9.56,19.61,9.94,20.4,2.11,0,0-39.4-68-42.2-72.13-2.92-4.31-45.23-20.15-50-22-5.42-2.16-38.33,3.33-48.94,16.56C264.81,133.33,272.4,148.22,272.4,148.22Z"/><path class="cls-24" d="M170.45,65c9.73,5.67,11.56,8.65,19.94,16.18,20.45,18.39,7.64,37.76,61.81,90,3.24,3.12,5.73,7.12,8.36,11,4.39,6.51,8.53,13.33,12.46,19.64,4.28,6.86,13.61,31.9,23.71,19.9-8.67,1.87-14.37-17.08-17.84-25.66-13.64-33.78-42.12-53.18-57.42-86.25-3.89-8.4-9.91-28.21-13.83-36.6-10.75-23-34.94-38.21-55.36-53.27S124.25,2.28,115.55,0H4.53c.76.82,115.78,40.39,119.83,42.08A387.46,387.46,0,0,1,170.45,65Z"/><circle class="cls-21" cx="135.03" cy="231.05" r="54.38"/><circle class="cls-12" cx="557.86" cy="106.71" r="21.12"/></g></g></svg>